<svg xmlns="http://www.w3.org/2000/svg" width="307.666" height="65.391" viewBox="0 0 307.666 65.391">
  <defs>
    <style>
      .cls-1 {
        fill: #169095;
      }

      .cls-2 {
        fill: #e4b141;
      }

      .cls-3 {
        fill: #444242;
      }
    </style>
  </defs>
  <g id="Logo-pecem_Prancheta_1" data-name="Logo-pecem_Prancheta 1" transform="translate(-7.955 -10.055)">
    <path id="Caminho_1" data-name="Caminho 1" class="cls-1" d="M139.276,16.51a20.511,20.511,0,0,0-18.533,18.948,19.742,19.742,0,0,0,0,2.864,5.62,5.62,0,0,0-.054.724V66.626a5.52,5.52,0,0,0,5.52,5.521h.77a5.521,5.521,0,0,0,5.528-5.521V36.668a8.77,8.77,0,0,1,8.138-8.831h.5a9.07,9.07,0,0,1,.57,18.109,8.961,8.961,0,0,1-1.44,0,4.982,4.982,0,0,0-5.39,5.012v.47a5.9,5.9,0,0,0,5.682,5.936h1.494a20.465,20.465,0,1,0-2.826-40.807Z" transform="translate(-25.935 -1.47)"/>
    <path id="Caminho_2" data-name="Caminho 2" class="cls-1" d="M14.981,45.938a20.488,20.488,0,0,0,26.494-.293A20.109,20.109,0,0,0,43.5,43.621a5.389,5.389,0,0,0,.554-.477L63.549,23.648a5.528,5.528,0,0,0,0-7.815L63,15.287a5.521,5.521,0,0,0-7.807,0L34.014,36.468a8.77,8.77,0,0,1-12,.493c-.131-.108-.246-.223-.37-.339a9.07,9.07,0,1,1,13.412-12.2,4.982,4.982,0,0,0,7.338.254l.331-.339a5.9,5.9,0,0,0,.185-8.215q-.508-.531-1.063-1.039A20.456,20.456,0,1,0,14.978,45.941Z" transform="translate(0)"/>
    <path id="Caminho_3" data-name="Caminho 3" class="cls-1" d="M390.9,40.84a16.461,16.461,0,0,0-27.656-12.073,16.377,16.377,0,0,0-11.18-4.389A16.692,16.692,0,0,0,335.347,40.84h0a4.951,4.951,0,0,0,0,.585V56.208a5.52,5.52,0,0,0,5.528,5.528h.531a5.528,5.528,0,0,0,5.528-5.528V40.848a5.159,5.159,0,0,1,5.159-5.082,5.243,5.243,0,0,1,5.259,5.074V56.208a5.52,5.52,0,0,0,5.528,5.528h.531a5.521,5.521,0,0,0,5.528-5.528V40.863c0-2.8,2.726-5.1,5.528-5.1a5.082,5.082,0,0,1,5.082,5.074v15.4a5.521,5.521,0,0,0,5.521,5.528h.339a5.521,5.521,0,0,0,5.528-5.528V40.84Z" transform="translate(-75.317 -3.294)"/>
    <path id="Caminho_4" data-name="Caminho 4" class="cls-1" d="M200.207,39.5h2.518a1.725,1.725,0,0,0,.87-3.218,8.608,8.608,0,0,0-5.751-.939,7.622,7.622,0,0,0-6.46,6.668,6.983,6.983,0,0,0,7.06,7.969c3.788,0,5.351.893,6.16,2.826l.085.2a6.221,6.221,0,0,1-5.674,8.677h-.185c-10.009,0-18.841-8.108-19.172-18.132A18.787,18.787,0,0,1,198.413,24.16a18.248,18.248,0,0,1,17.609,12.966,20.075,20.075,0,0,1,.516,2.356,6.645,6.645,0,0,1-6.575,7.7h-9.755a3.85,3.85,0,0,1-3.85-3.85h0a3.85,3.85,0,0,1,3.85-3.827Z" transform="translate(-39.499 -3.245)"/>
    <path id="Caminho_5" data-name="Caminho 5" class="cls-1" d="M302.231,39.5h2.518a1.725,1.725,0,0,0,.878-3.218,8.631,8.631,0,0,0-5.759-.939,7.622,7.622,0,0,0-6.46,6.668,6.991,6.991,0,0,0,7.068,7.969c3.78,0,5.343.893,6.16,2.826l.092.2a6.221,6.221,0,0,1-5.682,8.677h-.185c-10.009,0-18.833-8.108-19.164-18.132A18.779,18.779,0,0,1,300.445,24.16a18.263,18.263,0,0,1,17.609,12.966,20.1,20.1,0,0,1,.508,2.356,6.645,6.645,0,0,1-6.575,7.7h-9.755a3.85,3.85,0,0,1-3.85-3.85h0a3.85,3.85,0,0,1,3.85-3.827Z" transform="translate(-62.974 -3.245)"/>
    <path id="Caminho_6" data-name="Caminho 6" class="cls-1" d="M258.155,46.477a7.368,7.368,0,1,1-.177-7.4,2.764,2.764,0,0,0,2.356,1.3h0a6.344,6.344,0,0,0,4.473-10.856,18.756,18.756,0,1,0,.662,26.14,6.352,6.352,0,0,0-4.7-10.633H260.6A2.818,2.818,0,0,0,258.155,46.477Z" transform="translate(-51.759 -3.249)"/>
    <path id="Caminho_7" data-name="Caminho 7" class="cls-2" d="M324.743,27.117a17.031,17.031,0,0,0-4.774-3.526,2.425,2.425,0,0,1-1.247-2.964h0a2.41,2.41,0,0,1,3.357-1.363,21.635,21.635,0,0,1,6.16,4.558,2.418,2.418,0,0,1-.308,3.611h0a2.425,2.425,0,0,1-3.188-.316Z" transform="translate(-71.464 -2.06)"/>
    <path id="Caminho_8" data-name="Caminho 8" class="cls-2" d="M68.383,46.935a20.5,20.5,0,0,0-26.471.293,19.248,19.248,0,0,0-2.017,2.025,5.389,5.389,0,0,0-.554.477L19.815,69.225a5.513,5.513,0,0,0,0,7.815l.539.547a5.528,5.528,0,0,0,7.815,0L49.35,56.405a8.77,8.77,0,0,1,12-.493l.37.339a9.078,9.078,0,1,1-13.412,12.2,4.982,4.982,0,0,0-7.338-.216l-.339.339a5.9,5.9,0,0,0-.177,8.215q.508.531,1.063,1.039a20.469,20.469,0,0,0,26.863-30.89Z" transform="translate(-2.355 -7.403)"/>
    <path id="Caminho_9" data-name="Caminho 9" class="cls-3" d="M155.617,82.769a1.54,1.54,0,0,0-1.2-.57,1.886,1.886,0,0,0-1.863,2,1.832,1.832,0,0,0,1.863,1.948,1.54,1.54,0,0,0,1.3-.67l.57.431a2.31,2.31,0,0,1-1.886.878,2.572,2.572,0,0,1-2.572-2.587,2.525,2.525,0,0,1,2.6-2.672,2.225,2.225,0,0,1,1.755.77Z" transform="translate(-33.098 -16.443)"/>
    <path id="Caminho_10" data-name="Caminho 10" class="cls-3" d="M161,84.232a2.6,2.6,0,1,1,2.6,2.633,2.541,2.541,0,0,1-2.6-2.633Zm4.489,0a.8.8,0,1,0,.031,0Z" transform="translate(-35.208 -16.473)"/>
    <path id="Caminho_11" data-name="Caminho 11" class="cls-3" d="M171.751,81.74h1.009l1.586,3.78h0l1.54-3.78H176.9v5h-.678V82.625h0l-1.686,4.111h-.454L172.4,82.625h0v4.111h-.678Z" transform="translate(-37.675 -16.491)"/>
    <path id="Caminho_12" data-name="Caminho 12" class="cls-3" d="M182.88,81.74h1.763c1.278,0,1.6.77,1.6,1.394s-.323,1.4-1.6,1.4h-1.086v2.2h-.678Zm.678,2.2h.893c.539,0,1.07-.131,1.07-.77s-.531-.77-1.07-.77h-.893Z" transform="translate(-40.243 -16.491)"/>
    <path id="Caminho_13" data-name="Caminho 13" class="cls-3" d="M191.07,81.74h.716v4.366h2.31v.631h-2.972Z" transform="translate(-42.127 -16.491)"/>
    <path id="Caminho_14" data-name="Caminho 14" class="cls-3" d="M198.59,81.74h3.226v.631h-2.549v1.494h2.371V84.5h-2.371v1.609h2.672v.631H198.59Z" transform="translate(-43.857 -16.491)"/>
    <path id="Caminho_15" data-name="Caminho 15" class="cls-3" d="M207.9,84.111l-1.678-2.371h.87l1.3,1.917,1.286-1.917h.847L208.854,84.1l1.84,2.633H209.8l-1.432-2.164-1.44,2.164h-.839Z" transform="translate(-45.582 -16.491)"/>
    <path id="Caminho_16" data-name="Caminho 16" class="cls-3" d="M215.229,84.227a2.61,2.61,0,1,1,2.6,2.633,2.541,2.541,0,0,1-2.6-2.633Zm4.489,0a1.879,1.879,0,1,0-.51,1.407,1.886,1.886,0,0,0,.51-1.407Z" transform="translate(-47.684 -16.468)"/>
    <path id="Caminho_17" data-name="Caminho 17" class="cls-3" d="M231.32,81.74H232v5h-.678Z" transform="translate(-51.386 -16.491)"/>
    <path id="Caminho_18" data-name="Caminho 18" class="cls-3" d="M236.62,81.74h.885l2.756,4.112h0V81.74h.678v5h-.862L237.3,82.625h0v4.111h-.678Z" transform="translate(-52.606 -16.491)"/>
    <path id="Caminho_19" data-name="Caminho 19" class="cls-3" d="M246.52,81.737h1.748a2.41,2.41,0,0,1,2.625,2.51,2.525,2.525,0,0,1-2.741,2.5H246.52ZM247.2,86.1h.855a1.894,1.894,0,0,0,2.117-1.856,1.794,1.794,0,0,0-1.956-1.863H247.2Z" transform="translate(-54.883 -16.489)"/>
    <path id="Caminho_20" data-name="Caminho 20" class="cls-3" d="M256.8,81.74v3.08a1.263,1.263,0,1,0,2.51,0V81.74h.678v3.172a1.933,1.933,0,1,1-3.85,0V81.74Z" transform="translate(-57.094 -16.491)"/>
    <path id="Caminho_21" data-name="Caminho 21" class="cls-3" d="M265.452,85.648a1.24,1.24,0,0,0,1.055.539.932.932,0,0,0,1-.832c0-1.155-2.464-.439-2.464-2.387a1.54,1.54,0,0,1,1.694-1.4,1.732,1.732,0,0,1,1.44.577l-.554.5a1.047,1.047,0,0,0-.885-.439c-.77,0-.978.454-.978.77,0,1.263,2.464.508,2.464,2.31a1.578,1.578,0,0,1-1.732,1.54,1.933,1.933,0,0,1-1.6-.693Z" transform="translate(-59.109 -16.45)"/>
    <path id="Caminho_22" data-name="Caminho 22" class="cls-3" d="M274.149,82.371H272.54V81.74h3.9v.631h-1.609v4.366h-.678Z" transform="translate(-60.869 -16.491)"/>
    <path id="Caminho_23" data-name="Caminho 23" class="cls-3" d="M281.285,81.74h1.763c1.27,0,1.6.77,1.6,1.394a1.347,1.347,0,0,1-1.232,1.324l1.417,2.31h-.847l-1.27-2.2h-.77v2.2h-.678Zm.678,2.2h.893c.531,0,1.07-.131,1.07-.77s-.539-.77-1.07-.77h-.893Z" transform="translate(-62.878 -16.491)"/>
    <path id="Caminho_24" data-name="Caminho 24" class="cls-3" d="M289.65,81.74h.678v5h-.678Z" transform="translate(-64.806 -16.491)"/>
    <path id="Caminho_25" data-name="Caminho 25" class="cls-3" d="M296.356,81.74h.616l2.14,5h-.77l-.5-1.232h-2.379l-.493,1.232h-.77Zm1.216,3.172-.932-2.31h0l-.947,2.31Z" transform="translate(-65.852 -16.491)"/>
    <path id="Caminho_26" data-name="Caminho 26" class="cls-3" d="M304.155,81.74h.647v4.366h2.31v.631H304.14Z" transform="translate(-68.139 -16.491)"/>
    <path id="Caminho_27" data-name="Caminho 27" class="cls-3" d="M317,81.74h3.226v.631h-2.549v1.494h2.371V84.5h-2.371v1.609h2.672v.631H317Z" transform="translate(-71.098 -16.491)"/>
    <path id="Caminho_28" data-name="Caminho 28" class="cls-3" d="M330.62,81.74h1.763c1.278,0,1.6.77,1.6,1.394s-.323,1.4-1.6,1.4H331.3v2.2h-.678Zm.678,2.2h.893c.539,0,1.07-.131,1.07-.77s-.531-.77-1.07-.77H331.3Z" transform="translate(-74.231 -16.491)"/>
    <path id="Caminho_29" data-name="Caminho 29" class="cls-3" d="M338.41,84.227a2.61,2.61,0,1,1,2.6,2.633,2.541,2.541,0,0,1-2.6-2.633Zm4.489,0a1.879,1.879,0,1,0-.51,1.407A1.886,1.886,0,0,0,342.9,84.227Z" transform="translate(-76.023 -16.468)"/>
    <path id="Caminho_30" data-name="Caminho 30" class="cls-3" d="M349.2,81.74h1.755c1.278,0,1.6.77,1.6,1.394a1.34,1.34,0,0,1-1.2,1.324l1.417,2.31h-.847l-1.27-2.2h-.77v2.2h-.678Zm.678,2.2h.885c.539,0,1.078-.131,1.078-.77s-.539-.77-1.078-.77h-.885Z" transform="translate(-78.505 -16.491)"/>
    <path id="Caminho_31" data-name="Caminho 31" class="cls-3" d="M358.259,82.371H356.65V81.74h3.9v.631h-1.609v4.366h-.678Z" transform="translate(-80.219 -16.491)"/>
    <path id="Caminho_32" data-name="Caminho 32" class="cls-3" d="M365.96,81.74v3.08a1.27,1.27,0,1,0,2.518,0V81.74h.678v3.172a1.94,1.94,0,1,1-3.85,0V81.74Z" transform="translate(-82.207 -16.491)"/>
    <path id="Caminho_33" data-name="Caminho 33" class="cls-3" d="M376,81.351h.608l2.14,5h-.77l-.5-1.232H375.1l-.493,1.232h-.77Zm1.209,3.172-.932-2.31h0l-.939,2.31Zm-.67-4.473h.909L376.4,81.066h-.585Z" transform="translate(-84.174 -16.103)"/>
    <path id="Caminho_34" data-name="Caminho 34" class="cls-3" d="M383.815,81.74h1.755c1.278,0,1.6.77,1.6,1.394a1.34,1.34,0,0,1-1.224,1.324l1.417,2.31h-.847l-1.27-2.2h-.77v2.2H383.8Zm.678,2.2h.885c.539,0,1.078-.131,1.078-.77s-.539-.77-1.078-.77h-.885Z" transform="translate(-86.465 -16.491)"/>
    <path id="Caminho_35" data-name="Caminho 35" class="cls-3" d="M392.17,81.74h.678v5h-.678Z" transform="translate(-88.391 -16.491)"/>
    <path id="Caminho_36" data-name="Caminho 36" class="cls-3" d="M397.069,84.227a2.61,2.61,0,1,1,2.6,2.633,2.541,2.541,0,0,1-2.6-2.633Zm4.489,0a1.879,1.879,0,1,0-.51,1.407A1.886,1.886,0,0,0,401.558,84.227Z" transform="translate(-89.518 -16.468)"/>
  </g>
</svg>
